# xmcd CD database file
#
# Track frame offsets:
#	150
#	12660
#	38875
#	84225
#	111782
#	138870
#	162517
#	192520
#	224280
#	273130
#	311435
#
# Disc length: 4397 seconds
#
# Revision: 0
# Processed by: cddbd v1.5.2PL0 Copyright (c) Steve Scherf et al.
# Submitted via: CDex 1.51
#
DISCID=93112b0b
DTITLE=Hnilièka Jaromír - Èeská jazzové legendy
DYEAR=1900
DGENRE=Jazz
TTITLE0=Cave canem
TTITLE1=Brnìnské nokturno
TTITLE2=Leporello
TTITLE3=Váhavý tanec na louce nesplnìných pøání
TTITLE4=Concertino pro klavír a jazzový orchestr - 3. vìta
TTITLE5=Devátý list Luciliovi
TTITLE6=Skica pro suitu o standardním kosmologickém principu
TTITLE7=Acheron
TTITLE8=Noli tangere circulos meos
TTITLE9=Severská sonáta
TTITLE10=U sta Bromù
EXTD=
EXTT0=
EXTT1=
EXTT2=
EXTT3=
EXTT4=
EXTT5=
EXTT6=
EXTT7=
EXTT8=
EXTT9=
EXTT10=
PLAYORDER=
